<svg id="Capa_1" data-name="Capa 1" xmlns="http://www.w3.org/2000/svg" viewBox="0 0 838.144 88.074">
  <defs>
    <style>
      .cls-1 {
        fill: #fff;
      }
    </style>
  </defs>
  <title>5d54fee6-fc1d-4f9d-a81c-ef3194df4840</title>
  <path class="cls-1" d="M310.96,87.442V0h25.355a45.307,45.307,0,0,1,12.078,1.393A23.32,23.32,0,0,1,358,6.2a16.553,16.553,0,0,1,4.367,5.643,23.818,23.818,0,0,1,2.234,10.68,20.951,20.951,0,0,1-2.767,11.061,18.832,18.832,0,0,1-7.091,6.6,18.58,18.58,0,0,1-1.877.951,29.669,29.669,0,0,1,4.181,1.673,19.766,19.766,0,0,1,6.918,5.188,18.21,18.21,0,0,1,3.14,5.26,25.933,25.933,0,0,1,1.616,9.494,25.134,25.134,0,0,1-2.9,12.292,20.509,20.509,0,0,1-7.985,8.031,27.667,27.667,0,0,1-7.539,2.981,48.225,48.225,0,0,1-12.037,1.393Zm27.134-8.4a32.511,32.511,0,0,0,9.547-1.246,17.225,17.225,0,0,0,6.946-3.783,13.2,13.2,0,0,0,2.884-3.993A17.328,17.328,0,0,0,359,62.475a16.98,16.98,0,0,0-1.877-8.4,12.921,12.921,0,0,0-5.378-5.22,21.823,21.823,0,0,0-5.464-2,40.774,40.774,0,0,0-9.619-.986h-16.3V79.045Zm-2.14-41.552a34.216,34.216,0,0,0,8.511-.97,16.134,16.134,0,0,0,6.381-3.234,10.818,10.818,0,0,0,2.742-3.53,15.457,15.457,0,0,0,1.45-7.036,15.025,15.025,0,0,0-1.788-7.673,11.574,11.574,0,0,0-4.846-4.335,17.251,17.251,0,0,0-4.672-1.662,37.4,37.4,0,0,0-7.539-.71h-15.83v29.15Z"/>
  <path class="cls-1" d="M426.543,31.353a13.97,13.97,0,0,0-3.351-4.821,17.657,17.657,0,0,0-7.686-4.286,37.15,37.15,0,0,0-10.042-1.214c-12.536.069-19.583,3.7-24.162,6.312,3.384,7.157,6.967,5.411,11.61,3.413a30.354,30.354,0,0,1,11.971-2.165,32.955,32.955,0,0,1,6.284.9,13.637,13.637,0,0,1,3.316,1.349,9.334,9.334,0,0,1,3.4,3.615,13.133,13.133,0,0,1,1.239,6.117v9.355a67.516,67.516,0,0,0-14.94-1.522,45.792,45.792,0,0,0-10.538,1.129,30.3,30.3,0,0,0-6.556,2.434,18.862,18.862,0,0,0-7.033,6.5,18.713,18.713,0,0,0-2.542,9.876,21.977,21.977,0,0,0,1.581,8.449,17.729,17.729,0,0,0,7.872,8.433,25.527,25.527,0,0,0,12.276,2.843h.016A30.586,30.586,0,0,0,412.5,85.385a29.154,29.154,0,0,0,6.626-4.461,19.105,19.105,0,0,0,.216,2.214,5.2,5.2,0,0,0,.6,1.935,3.889,3.889,0,0,0,.87,1.193,4.747,4.747,0,0,0,1.913.938A8.768,8.768,0,0,0,425,87.44h3.172V40.193a22.275,22.275,0,0,0-1.632-8.84M419.121,71.1a28.158,28.158,0,0,1-7.585,6.487,22.816,22.816,0,0,1-11.472,2.666,19.841,19.841,0,0,1-5.475-.708,11.741,11.741,0,0,1-3.262-1.474,9.53,9.53,0,0,1-3.367-3.815,14.223,14.223,0,0,1-1.3-6.39,10.459,10.459,0,0,1,1.3-5.443,12,12,0,0,1,2.469-2.953,15.567,15.567,0,0,1,5.955-2.766,32.43,32.43,0,0,1,8.166-.923,67.352,67.352,0,0,1,14.57,1.67Z"/>
  <path class="cls-1" d="M486.913,87.441V39.95a14.436,14.436,0,0,0-1.069-6.114,7.362,7.362,0,0,0-2.68-3.2,11.132,11.132,0,0,0-2.629-1.092,21.069,21.069,0,0,0-4.606-.443,30.608,30.608,0,0,0-12.8,3.108,62.137,62.137,0,0,0-10.9,6.732v48.5h-9.07V21.715h4.31c.455.046.885.053,1.32.11a3.5,3.5,0,0,1,1.349.443,3.01,3.01,0,0,1,.772.63,3.5,3.5,0,0,1,.727,1.174,10.4,10.4,0,0,1,.455,1.933,31.276,31.276,0,0,1,.138,3.48V30.2a50.29,50.29,0,0,1,10.14-5.85,40.386,40.386,0,0,1,15.9-3.319,24.615,24.615,0,0,1,7.429,1.023,13.426,13.426,0,0,1,6.146,3.937,16.169,16.169,0,0,1,2.767,4.537,24.424,24.424,0,0,1,1.421,8.766V87.441Z"/>
  <path class="cls-1" d="M578.079,82.835a28.827,28.827,0,0,1-10.716-14.474,41.718,41.718,0,0,1-2.206-13.848A38.488,38.488,0,0,1,570,34.941a27.816,27.816,0,0,1,13.345-11.663,33.806,33.806,0,0,1,12.483-2.25,30.028,30.028,0,0,1,17.751,5.208A28.552,28.552,0,0,1,624.342,40.7a42.466,42.466,0,0,1,2.146,13.816c0,7.621-1.662,14.274-4.851,19.576a27.161,27.161,0,0,1-13.3,11.548,33.708,33.708,0,0,1-12.511,2.332,31.279,31.279,0,0,1-17.748-5.135m5.066-50.217a21.081,21.081,0,0,0-7.357,10.87,36.514,36.514,0,0,0-1.527,11.025c0,6.3,1.19,11.444,3.326,15.448a18.586,18.586,0,0,0,9.177,8.486,22.987,22.987,0,0,0,9.063,1.706A20.978,20.978,0,0,0,608.469,76.4a20.894,20.894,0,0,0,7.348-10.813,37.862,37.862,0,0,0,1.49-11.074c0-6.183-1.17-11.366-3.379-15.351a18.471,18.471,0,0,0-9.124-8.677,22.514,22.514,0,0,0-8.976-1.694c-5.114,0-9.352,1.3-12.683,3.827"/>
  <path class="cls-1" d="M717.986,87.441V39.536a15.953,15.953,0,0,0-.882-5.808,6.844,6.844,0,0,0-2.347-3.072,9.3,9.3,0,0,0-2.446-1.092,18.687,18.687,0,0,0-4.473-.459,25.493,25.493,0,0,0-11.527,2.926,56.772,56.772,0,0,0-9.538,6.353V87.441h-9.083V39.536a14.972,14.972,0,0,0-.963-5.808,7.07,7.07,0,0,0-2.4-3.072,8.719,8.719,0,0,0-2.409-1.092,17.379,17.379,0,0,0-4.233-.459,25.9,25.9,0,0,0-11.748,2.909,53.677,53.677,0,0,0-9.607,6.438v48.99h-9.038V21.715h4.273c.455.046.885.053,1.356.11a3.606,3.606,0,0,1,1.381.443,2.645,2.645,0,0,1,.777.63,3.322,3.322,0,0,1,.747,1.174,9.844,9.844,0,0,1,.358,1.949,26.8,26.8,0,0,1,.145,3.464v.131a57.67,57.67,0,0,1,8.7-5.183,34.894,34.894,0,0,1,14.807-3.4,20.284,20.284,0,0,1,7.775,1.377,14.525,14.525,0,0,1,6.255,4.806,14.859,14.859,0,0,1,1.657,3.075,48.976,48.976,0,0,1,9.851-6.024,35.885,35.885,0,0,1,14.636-3.234,22.391,22.391,0,0,1,7.251,1.1,14.4,14.4,0,0,1,5.853,3.875,13.931,13.931,0,0,1,2.613,4.22,21.439,21.439,0,0,1,1.283,7.621V87.441Z"/>
  <path class="cls-1" d="M224.4,55.748l11.952-39.886,12.1,39.886ZM255.285,8.907C252.86,1.72,251.507.04,244.659.04H227.951l-26.742,87.4h13.616l5.748-18.824h31.767l5.776,18.824H281.8Z"/>
  <path class="cls-1" d="M94.551,75.791V11.41h11.232A9.946,9.946,0,0,1,113.651,27.6l-7.275,10.915c7.617,1.825,12.7,7.629,12.7,18.475,0,13.186-7.881,18.8-18.314,18.8Zm28.273-41.5,4.294-6.33c9.014-13.4,2.811-27.939-15.042-27.939h-38.1V87.47h36.742c32.314,0,41.991-37.64,12.106-53.178"/>
  <path class="cls-1" d="M26.775,75.791H20.612V11.41H31.79a10.137,10.137,0,0,1,10.123,9.854,9.989,9.989,0,0,1-2.23,6.333L32.351,38.512C40,40.337,45.082,46.141,45.082,56.987c0,13.186-7.872,18.8-18.308,18.8m22.061-41.5,4.253-6.33C62.147,14.566,55.945.024,38.047.024H0V87.47H36.739c32.29,0,42.055-37.64,12.1-53.178"/>
  <path class="cls-1" d="M161.28,11.41C158.163,1.559,156.591.024,150.617.024H135.185l28.6,87.418H184.8L211.435.024H197.6l-19.73,66.4Z"/>
  <path class="cls-1" d="M558.526,27.826c-3.384,7.153-6.626,4.806-11.256,2.811a25.526,25.526,0,0,0-9.948-1.747,21.282,21.282,0,0,0-12.675,3.77,20.857,20.857,0,0,0-7.6,10.785,33.723,33.723,0,0,0-1.666,10.945A36.551,36.551,0,0,0,517.3,66.64a20.873,20.873,0,0,0,5.406,8.335,18.158,18.158,0,0,0,5.318,3.376,23.957,23.957,0,0,0,9.295,1.682,24.307,24.307,0,0,0,10.9-2.352c4.477-2.316,7.548-4.96,11.439,1.945a30.906,30.906,0,0,1-7.36,5.107c-.451.207-.906.4-1.374.593a35.942,35.942,0,0,1-13.9,2.644H537a31.525,31.525,0,0,1-18.174-5.22,28.416,28.416,0,0,1-10.587-14.575A44.091,44.091,0,0,1,506.2,54.389c-.025-7.665,1.747-14.315,5-19.624a28.278,28.278,0,0,1,13.653-11.513,34.936,34.936,0,0,1,12.565-2.222c2.6.117,11.869-.71,21.107,6.8"/>
  <path class="cls-1" d="M791.855,38.172a27.156,27.156,0,0,0-3.868-7.661,23.214,23.214,0,0,0-9.164-7.259,32.35,32.35,0,0,0-12.239-2.222,29.212,29.212,0,0,0-11.768,2.36,27.76,27.76,0,0,0-12.828,11.78,39.32,39.32,0,0,0-4.733,19.6,43.906,43.906,0,0,0,1.991,13.613,27.37,27.37,0,0,0,10.428,14.4c4.853,3.363,11.13,5.183,18.434,5.183h.012a42.833,42.833,0,0,0,14.5-2.335c6.212-2.332,9.389-5.2,10.927-6.873-4.236-6.167-6.641-3.7-11.541-1.434-2.859,1.43-8.36,2.623-13.3,2.623a27.106,27.106,0,0,1-9.782-1.612,17.193,17.193,0,0,1-5.422-3.206,18.75,18.75,0,0,1-5.264-8.084,34.385,34.385,0,0,1-1.8-10.773h47.289V54.392c0-.548.069-1.579.069-2.567a43.036,43.036,0,0,0-1.945-13.653M746.7,48.637a32.482,32.482,0,0,1,2.059-7.982,19.526,19.526,0,0,1,7.1-9.017,18.8,18.8,0,0,1,10.724-2.99,22.5,22.5,0,0,1,7.4,1.124,13.961,13.961,0,0,1,4.342,2.507,15.689,15.689,0,0,1,4.546,6.735,34.178,34.178,0,0,1,1.825,9.624Z"/>
  <path class="cls-1" d="M832.469,21.292a23.525,23.525,0,0,0-12.653,3.726,35.3,35.3,0,0,0-6.4,5.094,27.6,27.6,0,0,0-.186-3.8,7.51,7.51,0,0,0-.386-2.057,4.178,4.178,0,0,0-.69-1.246,4.313,4.313,0,0,0-.781-.662,3.2,3.2,0,0,0-1.4-.5c-.414-.056-.848-.06-1.3-.1h-4.326V87.461h9.07V40.3a36.659,36.659,0,0,1,8.141-7.357c.073-.044.142-.081.207-.126a19.414,19.414,0,0,1,8.941-3.184c4.213-.407,7.024-.963,7.438-7.516a20.529,20.529,0,0,0-5.675-.821"/>
</svg>
